<svg id="Covariate--Streamline-Carbon" xmlns="http://www.w3.org/2000/svg" viewBox="0 0 16 16" height="16" width="16">
  <desc>
    Covariate Streamline Icon: https://streamlinehq.com
  </desc>
  <defs></defs>
  <title>covariate</title>
  <path d="M3 8a1 1 0 1 0 2 0 1 1 0 1 0 -2 0" fill="#000000" stroke-width="0.5"></path>
  <path d="M6 4a1 1 0 1 0 2 0 1 1 0 1 0 -2 0" fill="#000000" stroke-width="0.5"></path>
  <path d="M13 6a1 1 0 1 0 2 0 1 1 0 1 0 -2 0" fill="#000000" stroke-width="0.5"></path>
  <path d="M9.5 9a1 1 0 1 0 2 0 1 1 0 1 0 -2 0" fill="#000000" stroke-width="0.5"></path>
  <path d="M15 1.70705 14.29295 1 2 13.29295V1H1v13a1 1 0 0 0 1 1h13v-1H2.70705ZM2 14Z" fill="#000000" stroke-width="0.5"></path>
  <path id="_Transparent_Rectangle_" d="M0 0h16v16H0Z" fill="none" stroke-width="0.5"></path>
</svg>