<svg xmlns="http://www.w3.org/2000/svg" shape-rendering="geometricPrecision" text-rendering="geometricPrecision" image-rendering="optimizeQuality" fill-rule="evenodd" clip-rule="evenodd" viewBox="0 0 512 512.001"><path d="M145.228 0h221.545c39.962 0 76.279 16.334 102.59 42.638C495.666 68.942 512 105.262 512 145.224v221.549c0 39.962-16.334 76.279-42.637 102.59-26.311 26.303-62.624 42.638-102.59 42.638H145.228c-39.966 0-76.279-16.335-102.59-42.638C16.334 443.052 0 406.735 0 366.773V145.224c0-39.962 16.334-76.282 42.638-102.586C68.949 16.334 105.266 0 145.228 0zm57.668 215.333c-4.07.172-6.963 1.523-8.63 4.063-4.531 6.793 1.649 13.502 5.943 18.232 12.174 13.362 42.015 45.476 48.022 52.542 4.553 5.036 11.036 5.036 15.593 0 6.205-7.25 37.544-40.826 49.117-53.825 4.016-4.52 8.983-10.69 4.801-16.949-1.707-2.54-4.571-3.891-8.641-4.063h-24.715V154.11c0-6.523-5.352-11.875-11.879-11.875H239.5c-6.529 0-11.878 5.345-11.878 11.875v61.223h-24.726zm-79.47 67.616c-3.782-15.646 19.911-21.387 23.689-5.734 1.581 6.526 2.939 13.089 4.246 19.676 2.439 12.315 4.243 20.034 8.789 23.88 4.815 4.074 13.917 5.482 31.368 5.482h132.084c16.107 0 24.514-1.542 28.933-5.54 4.257-3.846 5.925-11.381 8.086-22.947l.047-.226c1.271-6.804 2.586-13.601 4.221-20.325 3.779-15.639 27.446-9.919 23.689 5.705l-.007.025c-1.542 6.397-2.769 12.823-3.969 19.288l-.004.025c-3.184 17.037-5.788 28.724-14.522 36.936-8.605 8.086-22.083 11.508-46.474 11.508H191.518c-25.501 0-39.516-3.069-48.527-11.05-9.239-8.183-12.041-20.058-15.606-38.082-1.236-6.227-2.464-12.451-3.959-18.621z"/></svg>